<?xml version="1.0" standalone="no"?>
<!DOCTYPE svg PUBLIC "-//W3C//DTD SVG 20010904//EN"
 "http://www.w3.org/TR/2001/REC-SVG-20010904/DTD/svg10.dtd">
<svg version="1.0" xmlns="http://www.w3.org/2000/svg"
 width="1622.000000pt" height="1622.000000pt" viewBox="0 0 1622.000000 1622.000000"
 preserveAspectRatio="xMidYMid meet">
<metadata>
Created by potrace 1.14, written by Peter Selinger 2001-2017
</metadata>
<g transform="translate(0.000000,1622.000000) scale(0.100000,-0.100000)"
fill="#000000" stroke="none">
<path d="M7987 16067 c-257 -316 -512 -679 -700 -994 -51 -87 -97 -165 -100
-173 -4 -8 -17 -31 -28 -50 -40 -65 -196 -374 -244 -480 -25 -58 -52 -118 -60
-135 -7 -16 -23 -55 -35 -85 -12 -30 -28 -68 -35 -85 -54 -118 -225 -643 -251
-773 -3 -13 -16 -69 -29 -125 -14 -56 -37 -167 -51 -247 -32 -185 -32 -184
-39 -239 -10 -76 -13 -103 -20 -166 -4 -33 -8 -76 -10 -95 -24 -214 -24 -813
-1 -960 3 -14 7 -56 10 -95 4 -38 8 -83 11 -100 2 -16 6 -47 9 -69 13 -95 18
-128 37 -231 52 -283 170 -717 234 -860 7 -16 17 -43 21 -60 4 -16 11 -36 17
-43 5 -7 8 -14 6 -15 -11 -8 -151 -59 -153 -56 -14 18 -113 306 -156 454 -33
112 -105 407 -115 465 -3 19 -8 46 -10 60 -3 14 -7 36 -10 50 -3 14 -7 36 -9
50 -3 14 -8 43 -11 65 -2 22 -7 56 -10 75 -3 19 -7 51 -10 70 -2 19 -6 60 -10
90 -4 30 -8 71 -11 90 -20 169 -27 737 -11 936 l8 102 -84 65 c-442 340 -999
653 -1512 846 -33 13 -69 27 -80 31 -203 85 -715 233 -1060 306 -139 29 -458
85 -575 100 -45 5 -108 14 -140 19 -26 4 -134 16 -185 21 -16 1 -66 5 -110 9
-44 4 -83 9 -88 12 -9 5 -3 -81 18 -257 2 -19 7 -60 10 -90 7 -58 9 -79 20
-145 3 -22 8 -58 10 -80 2 -22 6 -49 9 -60 5 -26 17 -99 21 -128 2 -21 31
-181 39 -222 40 -199 90 -415 114 -492 6 -18 9 -33 6 -33 -3 0 0 -8 5 -19 6
-10 13 -32 15 -48 21 -117 212 -667 303 -873 80 -180 112 -249 170 -365 74
-147 154 -293 226 -410 42 -68 220 -339 227 -345 3 -3 17 -21 30 -40 13 -19
59 -81 103 -137 59 -76 84 -101 98 -98 115 22 849 23 964 1 11 -2 55 -7 98
-11 43 -3 88 -8 100 -10 12 -2 73 -11 135 -20 62 -9 121 -18 130 -20 9 -1 58
-11 107 -20 50 -9 99 -19 110 -21 16 -3 301 -74 355 -89 136 -36 490 -160 490
-171 0 -2 -4 -12 -9 -22 -5 -9 -20 -41 -32 -69 -12 -29 -24 -53 -25 -53 -5 0
-148 51 -169 61 -11 4 -65 22 -120 40 -55 17 -118 37 -140 44 -56 18 -262 71
-370 94 -125 28 -335 64 -434 76 -30 4 -62 8 -72 10 -10 2 -57 7 -105 10 -48
4 -97 9 -108 11 -97 19 -694 19 -851 0 -16 -2 -66 -7 -110 -10 -44 -4 -87 -9
-95 -11 -8 -2 -42 -6 -75 -10 -96 -10 -339 -53 -488 -86 -1001 -221 -1958
-705 -2917 -1473 -177 -142 -178 -143 -158 -158 8 -7 80 -65 159 -129 79 -64
178 -141 219 -172 41 -31 80 -60 85 -65 143 -115 641 -438 855 -555 30 -16 60
-33 65 -37 30 -23 455 -228 605 -293 200 -85 230 -97 470 -178 288 -98 587
-175 875 -225 50 -8 101 -17 115 -19 14 -3 52 -8 85 -11 33 -3 62 -7 65 -9 3
-2 41 -6 85 -10 44 -4 89 -9 100 -11 117 -22 856 -22 970 0 11 2 56 7 99 11
43 4 86 8 95 10 9 1 39 6 66 9 92 13 120 17 230 37 263 48 650 153 860 234
127 50 109 53 143 -31 21 -52 26 -76 18 -81 -50 -32 -570 -196 -695 -220 -14
-2 -27 -6 -31 -8 -6 -4 -180 -41 -235 -51 -40 -6 -139 -23 -172 -29 -16 -3
-49 -7 -74 -10 -25 -3 -54 -7 -65 -9 -10 -2 -50 -7 -89 -11 -38 -4 -79 -9 -89
-11 -101 -18 -766 -26 -956 -11 l-95 7 -107 -142 c-126 -169 -297 -425 -366
-548 -11 -19 -44 -78 -73 -130 -264 -465 -507 -1100 -654 -1710 -11 -47 -67
-309 -70 -330 -2 -14 -11 -61 -19 -105 -19 -98 -21 -114 -36 -212 -7 -43 -14
-86 -16 -97 -2 -10 -6 -44 -10 -75 -3 -31 -8 -64 -9 -73 -2 -9 -7 -48 -10 -85
-4 -37 -8 -75 -10 -83 -2 -8 -7 -51 -10 -95 -3 -44 -8 -97 -11 -118 l-6 -38
64 6 c34 3 79 8 98 10 19 2 63 7 98 10 35 4 72 8 83 10 11 2 50 7 87 10 37 3
74 8 82 10 8 2 35 7 60 10 44 6 70 10 130 20 17 3 45 7 63 10 17 3 43 7 57 10
14 3 41 7 60 10 39 6 187 36 295 59 190 41 654 167 720 195 11 5 63 23 115 41
239 80 504 191 764 320 167 83 214 108 319 168 20 12 53 31 73 42 129 74 338
214 532 359 l142 106 -7 125 c-10 165 -10 626 0 765 12 160 23 273 32 325 3
14 7 48 10 75 4 28 8 57 10 65 3 8 7 33 10 55 7 45 23 140 29 170 45 209 94
404 135 535 47 149 71 223 81 245 5 11 18 47 30 79 12 33 23 63 25 67 3 4 39
-7 80 -24 58 -24 74 -35 69 -47 -90 -214 -223 -671 -259 -890 -3 -19 -12 -71
-20 -115 -26 -145 -42 -255 -51 -349 -3 -33 -7 -74 -9 -91 -23 -179 -23 -798
0 -960 2 -16 6 -59 9 -95 3 -36 8 -76 10 -90 2 -14 7 -47 11 -75 14 -108 16
-122 25 -170 5 -27 12 -66 15 -85 37 -233 152 -655 258 -950 98 -270 307 -730
442 -970 74 -132 209 -356 241 -403 19 -26 34 -50 34 -53 0 -6 132 -200 221
-326 103 -145 253 -339 383 -498 39 -47 72 -87 74 -90 15 -19 413 500 606 790
64 96 123 184 130 196 146 217 398 693 530 1002 118 275 270 716 301 872 2 8
4 15 5 15 1 0 3 7 5 15 1 8 10 44 19 80 9 36 18 74 20 85 3 11 9 40 15 65 11
50 10 47 40 210 11 63 23 135 26 160 3 25 8 56 10 70 25 146 47 484 47 712 1
131 -9 394 -17 453 -2 17 -6 64 -10 105 -3 41 -8 82 -10 90 -2 8 -6 40 -10 71
-3 31 -7 65 -9 75 -2 11 -9 55 -16 99 -6 44 -18 108 -26 143 -7 34 -16 77 -19
95 -28 159 -152 584 -224 766 -12 29 -20 55 -18 57 2 2 36 17 76 33 51 22 73
27 76 18 3 -7 23 -61 45 -122 35 -94 78 -230 145 -460 18 -64 60 -254 81 -365
2 -14 11 -59 19 -100 7 -41 17 -95 20 -120 4 -25 8 -56 10 -70 34 -230 49
-466 49 -755 0 -209 -11 -472 -20 -487 -8 -12 30 -44 189 -161 423 -312 879
-564 1364 -752 65 -26 125 -50 133 -54 65 -33 703 -226 845 -256 11 -2 63 -13
115 -24 162 -36 281 -59 380 -76 52 -9 106 -18 120 -20 14 -3 45 -7 70 -10 25
-3 56 -8 70 -10 14 -3 41 -7 60 -10 19 -2 69 -9 110 -14 41 -6 102 -13 135
-16 33 -3 78 -8 100 -10 132 -16 154 -16 150 3 -2 10 -6 53 -9 95 -7 75 -8 90
-21 197 -19 152 -27 212 -30 229 -1 9 -6 41 -10 71 -4 30 -9 64 -11 75 -2 11
-6 36 -9 55 -3 19 -7 46 -10 60 -3 14 -7 39 -10 55 -11 63 -15 85 -50 250
-133 631 -322 1179 -589 1708 -165 328 -345 618 -554 892 l-98 130 -60 -1
c-32 -1 -115 -4 -184 -8 -243 -12 -669 -3 -800 18 -14 3 -54 7 -90 11 -106 11
-146 16 -245 31 -51 7 -211 36 -215 39 -3 2 -25 6 -48 10 -51 7 -368 87 -461
116 -120 37 -305 102 -333 116 -15 7 -29 13 -30 12 -7 -5 -48 13 -48 21 0 4
13 39 29 77 16 37 27 71 23 74 -4 4 -59 28 -122 55 -140 58 -313 144 -440 217
l-95 55 0 1053 0 1052 50 32 c41 26 122 71 224 125 32 17 187 89 226 106 60
25 159 64 161 64 1 0 2 -609 3 -1352 0 -744 0 -1366 0 -1381 1 -23 8 -31 49
-48 67 -29 477 -161 538 -174 11 -2 66 -15 124 -28 92 -22 138 -32 240 -52 70
-14 201 -35 245 -40 28 -3 61 -8 75 -10 14 -3 57 -7 95 -11 39 -3 79 -8 90
-10 124 -24 829 -23 975 0 14 3 57 7 95 10 39 4 81 8 95 11 14 2 45 6 70 9
116 15 329 54 541 101 9 2 33 8 55 14 21 6 91 25 154 42 216 58 603 193 747
259 24 11 45 20 48 20 12 0 219 98 400 190 488 247 970 563 1442 947 l153 124
-68 57 c-37 32 -87 73 -112 92 -25 19 -47 37 -50 40 -12 14 -149 118 -261 200
-68 50 -129 94 -136 100 -7 5 -83 57 -170 115 -87 58 -163 109 -170 115 -7 5
-15 10 -17 10 -3 0 -38 20 -76 45 -486 312 -1169 616 -1720 766 -25 7 -47 13
-50 14 -3 1 -25 7 -50 13 -25 7 -61 17 -80 22 -19 6 -46 12 -60 15 -14 2 -79
16 -145 30 -66 14 -137 27 -159 30 -21 3 -41 7 -45 9 -3 2 -28 6 -56 10 -27 3
-59 8 -70 10 -29 5 -145 20 -250 30 -413 42 -826 36 -1260 -20 -171 -22 -479
-83 -647 -129 -10 -3 -26 -7 -35 -9 -10 -2 -45 -12 -78 -21 -33 -10 -61 -17
-62 -17 -5 2 -317 -106 -356 -123 -41 -17 -67 -9 -67 22 0 8 -6 26 -14 41 -31
62 -30 70 11 87 134 57 499 168 703 214 52 12 113 26 135 31 48 12 208 40 305
55 86 13 158 22 245 30 33 4 76 8 96 10 203 23 850 23 968 0 25 -5 232 271
387 515 332 523 594 1123 767 1760 40 147 109 433 121 500 3 14 11 57 19 95 8
39 18 88 21 110 3 22 8 54 11 70 3 17 7 44 10 60 3 17 7 39 9 51 2 12 7 45 11
75 3 30 8 61 10 69 2 8 7 42 10 75 4 32 8 62 10 65 1 3 6 40 9 82 4 42 9 85
10 95 2 10 7 58 11 108 3 49 7 94 8 100 1 5 -2 9 -8 9 -9 -2 -85 -9 -205 -19
-44 -4 -150 -16 -170 -20 -8 -2 -44 -6 -80 -10 -36 -4 -74 -9 -85 -11 -11 -2
-31 -6 -45 -8 -14 -3 -41 -7 -60 -10 -90 -13 -242 -39 -305 -52 -38 -8 -86
-17 -105 -20 -19 -3 -42 -7 -50 -10 -8 -3 -26 -8 -40 -10 -63 -12 -208 -46
-237 -55 -17 -5 -42 -12 -55 -14 -29 -6 -229 -63 -366 -104 -429 -130 -1000
-383 -1357 -601 -49 -30 -98 -59 -107 -65 -123 -71 -402 -267 -515 -362 -39
-33 -51 -49 -48 -65 22 -115 23 -849 0 -966 -1 -9 -6 -49 -9 -87 -4 -39 -8
-80 -10 -90 -2 -11 -7 -47 -11 -80 -5 -51 -16 -115 -50 -315 -6 -35 -20 -92
-66 -275 -22 -88 -41 -167 -43 -176 -24 -96 -151 -466 -167 -483 -5 -6 -17 -5
-31 2 -13 6 -45 20 -72 31 -39 17 -47 24 -41 38 44 109 167 486 180 551 2 9
12 53 24 97 23 90 76 357 85 425 3 25 8 56 11 69 2 13 7 49 11 80 3 31 8 64 9
73 2 9 7 52 10 95 4 43 9 86 10 95 6 28 18 345 18 453 0 173 -21 506 -38 625
-2 14 -11 77 -20 140 -15 115 -21 154 -30 200 -3 14 -7 36 -10 50 -16 85 -30
149 -57 260 -16 69 -31 132 -33 140 -23 99 -126 421 -188 585 -41 109 -67 171
-167 404 -82 189 -263 530 -412 774 -74 122 -284 442 -308 470 -6 7 -43 57
-83 112 -104 145 -286 377 -374 477 l-32 37 -124 -152z m1497 -6101 c-11 -36
-114 -266 -162 -361 -53 -107 -150 -274 -160 -276 -24 -5 -2095 -3 -2102 1
-22 13 -210 374 -270 515 -31 74 -50 125 -50 133 0 6 509 10 1375 10 l1376 0
-7 -22z m-2875 -129 c17 -43 67 -153 111 -244 44 -91 80 -167 80 -169 0 -2
-46 21 -102 50 -93 47 -247 117 -353 160 l-39 17 134 134 c74 74 135 133 136
132 1 -1 16 -37 33 -80z m3302 -183 c0 -4 -41 -24 -92 -46 -107 -44 -167 -72
-301 -139 l-98 -49 49 97 c67 135 137 288 172 381 9 23 16 17 140 -107 71 -71
130 -133 130 -137z m-3554 -210 c153 -65 370 -174 486 -244 44 -27 57 -40 58
-60 4 -137 1 -2069 -4 -2077 -18 -29 -528 -293 -567 -293 -4 0 -21 -7 -36 -15
-16 -8 -35 -15 -41 -15 -10 0 -13 282 -13 1375 0 756 2 1375 5 1375 2 0 53
-21 112 -46z m2795 -304 c2 -8 4 -476 3 -1040 l0 -1025 -1043 -3 -1042 -2 0
1039 c0 687 3 1040 10 1043 6 2 473 3 1040 3 907 0 1029 -2 1032 -15z m59
-2312 c88 -149 289 -572 276 -584 -6 -6 -2737 -7 -2743 -1 -15 15 151 374 254
550 l63 107 1053 0 1054 0 43 -72z m-2411 -31 c0 -1 -25 -54 -56 -117 -31 -63
-81 -171 -111 -240 -30 -69 -56 -127 -58 -129 -3 -2 -64 56 -136 129 -103 102
-129 134 -118 141 8 5 18 9 22 9 5 0 34 12 65 26 31 14 84 37 117 52 33 15
105 50 160 78 94 49 115 58 115 51z m2767 -65 c76 -38 186 -89 245 -113 l107
-45 -133 -133 c-74 -73 -136 -129 -138 -125 -3 5 -27 61 -54 124 -26 63 -76
170 -110 238 -34 67 -60 122 -58 122 2 0 65 -31 141 -68z"/>
</g>
</svg>
