<?xml version="1.0" encoding="UTF-8"?>
<svg viewBox="0 0 389 389" xmlns="http://www.w3.org/2000/svg" fill="#0D0016"  fill-opacity="0.5">
<path d="m223.55 219.78v-50.52a89.7 89.7 0 0 1 16-7.91l-1.55-3.73a108.34 108.34 0 0 0-12.3 5.72 110.12 110.12 0 0 0 5.7-12.34l-3.72-1.53a89.7 89.7 0 0 1-7.91 16h-50.52a90.07 90.07 0 0 1-7.92-16l-3.71 1.53a108.59 108.59 0 0 0 5.71 12.3 107.79 107.79 0 0 0-12.33-5.69l-1.53 3.72a90.07 90.07 0 0 1 16 7.92v50.52a89.7 89.7 0 0 1-16 7.91l1.53 3.72a109.31 109.31 0 0 0 12.31-5.73 110.12 110.12 0 0 0-5.72 12.3l3.71 1.52a90.16 90.16 0 0 1 7.92-15.95h50.52a90.16 90.16 0 0 1 7.91 15.95l3.71-1.52a111.44 111.44 0 0 0-5.69-12.26 109 109 0 0 0 12.25 5.7l1.53-3.72a89.7 89.7 0 0 1-15.9-7.91zm-4-0.22h-50.08v-50.09h50.08z"/>
<path d="m227.68 239.51h-66.33c-10.55 26.76-22 84.21 33.18 149.52 55.2-65.31 43.71-122.77 33.17-149.52z"/>
<path d="M149.51,227.69V161.34C122.75,150.79,65.3,139.31,0,194.52c65.31,55.19,122.76,43.72,149.51,33.17Z"/>
<path d="M161.34,149.51h66.34C238.23,122.75,249.71,65.3,194.5,0c-55.19,65.31-43.71,122.76-33.17,149.51Z"/>
<path d="m239.51 161.34v66.35c26.75 10.55 84.2 22 149.51-33.18-65.3-55.18-122.75-43.71-149.51-33.17z"/>
<path d="M102.85,148.56A131.58,131.58,0,0,1,151,157.61l6.57-6.57h0a130.61,130.61,0,0,1-8.31-34,133.91,133.91,0,0,1-.21-26.18C128.89,74.47,99.49,60.54,57,57c3.57,42.52,17.5,71.91,33.84,92.12,4-.35,8-.54,12-.54Z"/>
<path d="m157.63 238-6.63-6.58a131.58 131.58 0 0 1-48.19 9.05c-4 0-8-0.19-12-0.54-16.35 20.21-30.27 49.6-33.81 92.13 42.53-3.57 71.93-17.51 92.14-33.85a133.13 133.13 0 0 1 0.2-26.18 131 131 0 0 1 8.29-34.03z"/>
<path d="m332.07 332c-3.57-42.51-17.49-71.9-33.83-92.11q-6 0.54-12.07 0.55a131.36 131.36 0 0 1-48.2-9.06l-6.56 6.62a130.68 130.68 0 0 1 8.32 34 133.13 133.13 0 0 1 0.2 26.18c20.21 16.37 49.61 30.3 92.14 33.82z"/>
<path d="m239.92 90.82a133.8 133.8 0 0 1-0.21 26.17 131 131 0 0 1-8.31 34.01l6.58 6.57a131.34 131.34 0 0 1 48.19-9.06q6 0 12 0.55c16.39-20.16 30.31-49.56 33.88-92.06-42.53 3.54-71.92 17.48-92.13 33.82z"/>
</svg>
